<?xml version="1.0" encoding="UTF-8" standalone="no"?>
<svg width="71px" height="32px" viewBox="0 0 71 32" version="1.1" xmlns="http://www.w3.org/2000/svg" xmlns:xlink="http://www.w3.org/1999/xlink">
    <!-- Generator: Sketch 3.7.1 (28215) - http://www.bohemiancoding.com/sketch -->
    <title>d:D Logo</title>
    <desc>Created with Sketch.</desc>
    <defs></defs>
    <g id="Welcome" stroke="none" stroke-width="1" fill="none" fill-rule="evenodd">
        <g id="Splash" transform="translate(-240.000000, -24.000000)" fill="#373535">
            <g id="d:D-Logo" transform="translate(240.000000, 23.000000)">
                <g id="g20" transform="translate(11.693000, 16.967750) scale(1, -1) translate(-11.693000, -16.967750) translate(0.443000, 0.092750)">
                    <path d="M11.25,18.75 C9.63,18.75 8.145,18.07375 7.02,16.90375 C5.895,15.78 5.22,14.16 5.22,12.36125 C5.22,10.65125 5.895,9.03125 7.02,7.905 C8.145,6.73625 9.63,6.06125 11.25,6.06125 C12.915,6.06125 14.35375,6.73625 15.47875,7.905 C16.60375,9.03125 17.27875,10.65125 17.27875,12.36125 C17.27875,14.16 16.60375,15.78 15.47875,16.90375 C14.35375,18.07375 12.915,18.75 11.25,18.75 L11.25,18.75 Z M22.18375,3.58625 C22.18375,2.28125 21.10375,1.1575 19.75375,1.1575 C18.53875,1.1575 17.59375,2.01125 17.37,3.09125 C15.65875,1.92125 13.5,1.1575 11.25,1.1575 C5.17625,1.1575 0.31625,6.28625 0.31625,12.36125 C0.31625,18.52375 5.17625,23.65375 11.25,23.65375 C13.455,23.65375 15.615,22.935 17.27875,21.76375 L17.27875,30.2225 C17.27875,31.52875 18.35875,32.6525 19.75375,32.6525 C21.10375,32.6525 22.18375,31.52875 22.18375,30.2225 L22.18375,12.405 L22.18375,12.36125 L22.18375,3.58625 L22.18375,3.58625 Z" id="path22"></path>
                </g>
                <g id="g24" transform="translate(35.003500, 20.671375) scale(1, -1) translate(-35.003500, -20.671375) translate(31.253500, 7.546375)">
                    <path d="M3.75,7.5 C5.595,7.5 7.125,5.96875 7.125,4.125 C7.125,2.28 5.595,0.79625 3.75,0.79625 C1.905,0.79625 0.42,2.28 0.42,4.125 C0.42,5.96875 1.905,7.5 3.75,7.5 M3.75,25.4075 C5.595,25.4075 7.125,23.8775 7.125,22.0325 C7.125,20.1875 5.595,18.70375 3.75,18.70375 C1.905,18.70375 0.42,20.1875 0.42,22.0325 C0.42,23.8775 1.905,25.4075 3.75,25.4075" id="path26"></path>
                </g>
                <g id="g28" transform="translate(59.295500, 16.441625) scale(1, -1) translate(-59.295500, -16.441625) translate(47.420500, 0.191625)">
                    <path d="M5,5 L7.78875,5 C13.72875,5.045 18.4975,9.815 18.4975,15.79875 C18.4975,21.6925 13.72875,26.5075 7.78875,26.5075 L5,26.5075 L5,5 L5,5 Z M0.005,2.48 L0.005,29.0275 C0.005,30.42125 1.085,31.50125 2.48,31.50125 L7.78875,31.50125 C16.47375,31.50125 23.4925,24.4375 23.4925,15.79875 C23.4925,7.06875 16.47375,0.00625 7.78875,0.00625 L2.48,0.00625 C1.085,0.00625 0.005,1.13 0.005,2.48 L0.005,2.48 Z" id="path30"></path>
                </g>
            </g>
        </g>
    </g>
</svg>